<svg width="48" height="48" xmlns="http://www.w3.org/2000/svg" xmlns:xlink="http://www.w3.org/1999/xlink" xml:space="preserve" overflow="hidden"><defs><clipPath id="clip0"><rect x="636" y="468" width="48" height="48"/></clipPath><clipPath id="clip1"><rect x="636" y="468" width="48" height="48"/></clipPath><clipPath id="clip2"><rect x="636" y="469" width="48" height="46"/></clipPath><clipPath id="clip3"><rect x="636" y="469" width="48" height="46"/></clipPath></defs><g clip-path="url(#clip0)" transform="translate(-636 -468)"><g clip-path="url(#clip1)"><g clip-path="url(#clip2)"><g clip-path="url(#clip3)"><g><path d="M17.4943 0C20.7385 0.0579312 23.5772 0.811046 26.0103 2.25935 28.4435 3.70765 30.2973 5.64836 31.5718 8.08151 32.9042 10.5146 33.5704 13.2664 33.5704 16.3368 33.5704 18.5962 33.1359 20.7397 32.267 22.7673 31.4559 24.737 30.3262 26.5039 28.878 28.068 30.9635 29.6322 32.5855 31.5729 33.7442 33.8902 34.9608 36.2075 35.5691 38.7565 35.5691 41.5372 35.5691 44.4917 34.8449 47.2145 33.3966 49.7056 31.9483 52.1967 30.0076 54.1954 27.5745 55.7016 25.1413 57.1499 22.4475 57.874 19.493 57.874L0.549187 57.874 0.549187 0 17.4943 0ZM8.1962 7.82081 8.1962 25.0266 17.4943 25.0266C19.8695 25.0266 21.8682 24.1866 23.4903 22.5066 25.1123 20.8266 25.9234 18.7699 25.9234 16.3368 25.9234 13.9037 25.1123 11.8761 23.4903 10.254 21.9261 8.63186 19.9275 7.82081 17.4943 7.82081L8.1962 7.82081ZM8.1962 32.8474 8.1962 50.0532 19.493 50.0532C21.8682 50.0532 23.8668 49.2422 25.4889 47.6201 27.111 45.9401 27.9221 43.9124 27.9221 41.5372 27.9221 39.1041 27.111 37.0474 25.4889 35.3675 23.8668 33.6875 21.8682 32.8474 19.493 32.8474L8.1962 32.8474Z" fill="#0065FC" fill-rule="nonzero" fill-opacity="1" transform="matrix(1.02698 0 0 1 542.834 455.751)"/><path d="M64.5203 58.3085C61.5658 58.3085 58.7561 57.7291 56.0912 56.5705 53.4263 55.4119 51.0801 53.8187 49.0525 51.7912 47.0249 49.7636 45.4317 47.4173 44.2731 44.7524 43.1145 42.0875 42.5351 39.2779 42.5351 36.3233 42.5351 33.3108 43.1145 30.4432 44.2731 27.7204 45.4317 24.9977 47.0249 22.6224 49.0525 20.5948 51.0801 18.5672 53.4263 17.0031 56.0912 15.9023 58.7561 14.7437 61.5658 14.1644 64.5203 14.1644 67.5328 14.1644 70.4004 14.7437 73.1232 15.9023 75.846 17.0031 78.2213 18.5672 80.2488 20.5948 82.2764 22.6224 83.8406 24.9977 84.9413 27.7204 86.0999 30.4432 86.6793 33.3108 86.6793 36.3233 86.6793 39.2779 86.0999 42.0875 84.9413 44.7524 83.8406 47.4173 82.2764 49.7636 80.2488 51.7912 78.2213 53.8187 75.846 55.4119 73.1232 56.5705 70.4004 57.7291 67.5328 58.3085 64.5203 58.3085ZM64.5203 21.8983C60.6388 21.8983 57.3078 23.2886 54.5271 26.0694 53.1947 27.4018 52.1519 28.9659 51.3987 30.7619 50.6456 32.5578 50.2691 34.4116 50.2691 36.3233 50.2691 38.2351 50.6456 40.0599 51.3987 41.7979 52.1519 43.5359 53.1947 45.0711 54.5271 46.4035 55.8595 47.7359 57.3658 48.7787 59.0457 49.5318 60.7837 50.285 62.6086 50.6615 64.5203 50.6615 66.4321 50.6615 68.2859 50.285 70.0818 49.5318 71.8777 48.7787 73.4128 47.7359 74.6874 46.4035 75.9619 45.0711 76.9756 43.5359 77.7288 41.7979 78.4819 40.0599 78.8585 38.2351 78.8585 36.3233 78.8585 34.4116 78.4819 32.5578 77.7288 30.7619 76.9756 28.9659 75.9619 27.4018 74.6874 26.0694 73.4128 24.737 71.8777 23.7231 70.0818 23.0279 68.3438 22.2748 66.49 21.8983 64.5203 21.8983Z" fill="#0065FC" fill-rule="nonzero" fill-opacity="1" transform="matrix(1.02698 0 0 1 542.834 455.751)"/><path d="M113.909 58.3085C110.955 58.3085 108.145 57.7291 105.48 56.5705 102.816 55.4119 100.47 53.8187 98.4417 51.7912 96.4141 49.7636 94.8209 47.4173 93.6623 44.7524 92.5037 42.0875 91.9244 39.2779 91.9244 36.3233 91.9244 33.3108 92.5037 30.4432 93.6623 27.7204 94.8209 24.9977 96.4141 22.6224 98.4417 20.5948 100.47 18.5672 102.816 17.0031 105.48 15.9023 108.145 14.7437 110.955 14.1644 113.909 14.1644 116.922 14.1644 119.79 14.7437 122.512 15.9023 125.236 17.0031 127.611 18.5672 129.638 20.5948 131.666 22.6224 133.23 24.9977 134.33 27.7204 135.49 30.4432 136.068 33.3108 136.068 36.3233 136.068 39.2779 135.49 42.0875 134.33 44.7524 133.23 47.4173 131.666 49.7636 129.638 51.7912 127.611 53.8187 125.236 55.4119 122.512 56.5705 119.79 57.7291 116.922 58.3085 113.909 58.3085ZM113.909 21.8983C110.029 21.8983 106.697 23.2886 103.916 26.0694 102.584 27.4018 101.541 28.9659 100.788 30.7619 100.035 32.5578 99.6581 34.4116 99.6581 36.3233 99.6581 38.2351 100.035 40.0599 100.788 41.7979 101.541 43.5359 102.584 45.0711 103.916 46.4035 105.249 47.7359 106.755 48.7787 108.435 49.5318 110.173 50.285 111.998 50.6615 113.909 50.6615 115.821 50.6615 117.676 50.285 119.471 49.5318 121.267 48.7787 122.803 47.7359 124.076 46.4035 125.351 45.0711 126.365 43.5359 127.118 41.7979 127.871 40.0599 128.247 38.2351 128.247 36.3233 128.247 34.4116 127.871 32.5578 127.118 30.7619 126.365 28.9659 125.351 27.4018 124.076 26.0694 122.803 24.737 121.267 23.7231 119.471 23.0279 117.733 22.2748 115.879 21.8983 113.909 21.8983Z" fill="#0065FC" fill-rule="nonzero" fill-opacity="1" transform="matrix(1.02698 0 0 1 542.834 455.751)"/><path d="M164.736 57.874 151.527 41.7979 151.527 57.874 143.88 57.874 143.88 0.0868963 151.527 0.0868963 151.527 25.0266 163.345 13.9037 174.729 13.9037 154.134 33.0212 174.816 57.874 164.736 57.874Z" fill="#0065FC" fill-rule="nonzero" fill-opacity="1" transform="matrix(1.02698 0 0 1 542.834 455.751)"/><path d="M184.028 8.1684C182.927 8.1684 181.971 7.79184 181.16 7.03873 180.407 6.22768 180.031 5.2718 180.031 4.1711 180.031 3.07039 180.407 2.14349 181.16 1.39037 181.971 0.579318 182.927 0.173794 184.028 0.173794 185.129 0.173794 186.055 0.579318 186.809 1.39037 187.619 2.14349 188.025 3.07039 188.025 4.1711 188.025 5.2718 187.619 6.22768 186.809 7.03873 186.055 7.79184 185.129 8.1684 184.028 8.1684ZM180.465 57.874 180.465 14.4251 187.765 14.4251 187.765 57.874 180.465 57.874Z" fill="#0065FC" fill-rule="nonzero" fill-opacity="1" transform="matrix(1.02698 0 0 1 542.834 455.751)"/><path d="M118.497 30.7184C118.497 33.1726 116.507 35.1621 114.054 35.1621 111.6 35.1621 109.61 33.1726 109.61 30.7184 109.61 28.2643 111.6 26.2748 114.054 26.2748 116.507 26.2748 118.497 28.2643 118.497 30.7184Z" fill="#0065FC" fill-rule="nonzero" fill-opacity="1" transform="matrix(1.02698 0 0 1 542.834 455.751)"/><path d="M109.61 45.0368 111.755 29.2372 116.658 29.2372 118.497 45.0368 109.61 45.0368Z" fill="#0065FC" fill-rule="nonzero" fill-opacity="1" transform="matrix(1.02698 0 0 1 542.834 455.751)"/></g></g></g></g></g></svg>